<?xml version="1.0" encoding="UTF-8" standalone="no"?>
<svg
   version="1.1"
   width="2834.6458pt"
   height="850.39368pt"
   id="svg30"
   viewBox="0 0 2834.6458 850.39368"
   sodipodi:docname="ACI LLP Logo.cdr"
   xmlns:inkscape="http://www.inkscape.org/namespaces/inkscape"
   xmlns:sodipodi="http://sodipodi.sourceforge.net/DTD/sodipodi-0.dtd"
   xmlns="http://www.w3.org/2000/svg"
   xmlns:svg="http://www.w3.org/2000/svg">
  <defs
     id="defs30" />
  <sodipodi:namedview
     id="namedview30"
     pagecolor="#ffffff"
     bordercolor="#000000"
     borderopacity="0.25"
     inkscape:showpageshadow="2"
     inkscape:pageopacity="0.0"
     inkscape:pagecheckerboard="0"
     inkscape:deskcolor="#d1d1d1"
     inkscape:document-units="pt" />
  <g
     id="Layer1000">
    <path
       d="m 141.564,582.9018 -0.2191,-42.0656 c -0.0296,-6.1421 -0.3246,-7.914 2.6008,-13.7328 63.452,-126.0741 200.1651,-212.3578 472.0358,-249.7995 73.3832,-10.1031 154.965,-14.2933 249.6141,-17.5873 l 349.7389,6.1461 h 407.6395 c 0,0 182.4738,-2.0132 359.6869,-28.2183 92.689,-13.6959 407.9851,-119.8707 442.5459,16.2084 -46.1401,-48.306 -63.4984,-56.5227 -141.8641,-56.494 -40.715,0.0163 -67.3132,6.719 -106.3927,15.3859 l -180.9099,40.1178 c -365.9044,94.6559 -746.3556,40.0033 -1118.9706,38.4401 -260.4094,-1.1007 -616.665,38.657 -728.7316,249.1203 l 0.6239,39.8641 c 0.4131,26.3442 47.1433,60.7906 67.7854,62.5583 l 0.4173,1.9478 c -38.9067,-7.5988 -67.3807,-41.9797 -75.6005,-61.8913 z"
       style="fill:#1b1918;fill-rule:evenodd"
       id="path1" />
    <path
       d="m 1071.8012,263.1743 c 106.6626,-61.1875 257.817,-117.9188 411.4501,-161.6049 169.162,-48.1054 318.3522,-65.1485 481.676,-45.777 94.1223,11.1547 165.01,34.9578 254.6135,62.2718 l 86.05,26.2297 c 97.0181,36.5905 160.1878,51.1007 259.4863,68.4508 47.8894,8.364 105.6804,17.4727 159.6313,25.1575 -79.7187,14.5879 -229.343,-8.2576 -308.792,-25.6486 -114.5619,-31.2341 -224.2763,-72.3995 -338.7413,-97.4916 -118.7898,-26.025 -350.7337,-18.4058 -474.6239,6.2362 -144.2921,28.7094 -311.6921,74.867 -507.68,142.6099 z"
       style="fill:#1b1918;fill-rule:evenodd"
       id="path2" />
    <path
       d="m 2727.0774,306.4471 c -0.8346,18.5571 -4.8771,62.6851 -1.998,82.6009 5.6905,39.3853 25.8689,55.7451 41.7435,101.4076 58.9587,169.5883 -215.7404,261.5067 -341.987,270.1735 l 9.4801,-38.9762 c 115.738,7.4229 359.3833,-92.8349 308.8173,-236.3205 -26.379,-74.7892 -62.1454,-89.3731 -16.0559,-178.8853 z"
       style="fill:#1b1918;fill-rule:evenodd"
       id="path3" />
    <path
       d="m 1987.0953,558.1657 c -27.1251,55.1764 -27.2389,96.129 -4.0888,153.9242 l 12.827,27.0685 -15.4278,0.356 -143.3183,1.6246 -400.3556,-13.8432 v 7.5742 l 569.3237,26.8394 c 13.3075,-23.6844 10.0491,-17.837 -4.4597,-42.2211 -22.2144,-39.7087 -27.9724,-92.7409 -14.5005,-161.3226 z"
       style="fill:#1b1918;fill-rule:evenodd"
       id="path4" />
    <path
       d="m 956.8278,673.7806 c -0.8008,4.9467 -2.4069,17.3244 -4.8363,37.1678 -1.3511,12.6208 -2.2816,24.8943 -2.7917,36.7986 l -0.1879,4.33 h -11.8691 c 0.9529,-5.9326 2.7425,-19.6393 5.3865,-41.1286 1.5167,-14.1801 2.3219,-26.5751 2.407,-37.1678 z m 64.3342,37.1678 c 0,3.1617 -0.4652,9.6241 -1.3913,19.3526 -0.9306,9.7501 -1.3914,17.016 -1.3914,21.776 l -10.4554,0.595 c 0,-1.7633 0.5905,-7.431 1.7895,-17.0117 1.2079,-9.5851 1.7985,-16.8293 1.7985,-21.7543 0,-4.7035 -0.8679,-7.9652 -2.6172,-9.7719 -1.7538,-1.824 -4.5186,-2.7491 -8.2811,-2.7491 -4.4784,0 -8.8091,2.8534 -12.9474,8.5775 -4.1607,5.7068 -6.5677,12.0085 -7.288,18.9009 -0.9082,8.9901 -1.6061,16.7294 -2.0893,23.2136 l -10.0975,0.595 c 2.8946,-20.7467 4.3307,-34.7878 4.3307,-42.0928 0,-4.2084 -0.3176,-9.3375 -0.9708,-15.3917 l 10.451,-1.4984 c 0.2326,3.5309 0.3623,8.2084 0.3623,14.015 h 0.5056 c 5.3642,-9.7458 12.7371,-14.61 22.1322,-14.61 10.7731,0 16.1596,5.95 16.1596,17.8543 z m 72.848,-43.8387 c 0,1.0467 -0.7158,5.381 -2.1071,12.9944 -1.3959,7.6133 -2.6441,16.6208 -3.7178,27.0267 -1.0782,10.406 -1.6062,20.1952 -1.6062,29.3677 0,5.4201 0.1656,10.61 0.5056,15.5785 l -9.6501,0.7817 c -0.6801,-3.3267 -0.9977,-8.0042 -0.9977,-14.0193 h -0.5056 c -5.4491,9.7501 -12.9026,14.6143 -22.3872,14.6143 -5.8742,0 -10.6031,-2.0933 -14.2359,-6.28 -3.6327,-4.1867 -5.4491,-9.8327 -5.4491,-16.9335 0,-10.8967 2.8543,-19.8434 8.5316,-26.8661 5.7042,-7.0184 13.3724,-10.5275 23.027,-10.5275 6.1829,0 11.0013,1.3333 14.4193,3.9825 h 0.4877 c 0.8679,-8.3126 1.6061,-18.0801 2.2414,-29.3503 z m -14.3611,36.9245 c -3.5925,-2.3191 -7.4758,-3.4918 -11.6365,-3.4918 -7.7085,0 -13.5603,2.3409 -17.5734,7.0184 -3.9907,4.6601 -5.9994,11.0226 -5.9994,19.0877 0,12.3342 4.4783,18.5144 13.435,18.5144 4.4962,0 8.8672,-2.7535 13.1353,-8.2301 4.2681,-5.5026 6.7376,-11.9043 7.3953,-19.2527 z m 39.3074,-10.2235 c 0.045,2.8968 -0.3176,6.8751 -1.0782,11.9477 -0.7829,5.0684 -1.5569,11.3484 -2.3845,18.8402 -0.6353,5.685 -1.3109,14.8575 -2.0491,27.4784 l -10.7686,0.595 c 0.9485,-6.3191 2.237,-15.6784 3.8431,-28.0734 0.8679,-8.0043 1.284,-15.4135 1.284,-22.1887 0,-2.8533 -0.063,-5.1725 -0.2327,-6.9749 z m 4.456,-17.7326 c 0,2.3192 -0.7829,4.3126 -2.3622,5.9543 -1.5658,1.6417 -3.5522,2.4625 -5.9368,2.4625 -3.7581,0 -5.6192,-1.95 -5.6192,-5.8284 0,-2.3192 0.7829,-4.2909 2.3488,-5.8891 1.5569,-1.6026 3.5478,-2.4017 5.9323,-2.4017 3.7626,0 5.6371,1.8892 5.6371,5.7024 z m 57.4087,16.1735 c -3.7581,20.3602 -5.6192,35.1786 -5.6192,44.4336 0,4.2084 0.3579,9.1335 1.1006,14.7968 l -10.4554,1.4983 c -0.2551,-3.5699 -0.3624,-8.0433 -0.3624,-13.4026 h -0.5682 c -5.2389,9.255 -12.1421,13.876 -20.7185,13.876 -5.0063,0 -8.8046,-1.9326 -11.4263,-5.7892 -2.6172,-3.8784 -3.928,-8.9076 -3.928,-15.1269 0,-10.015 3.6104,-18.7359 10.8357,-26.1668 7.2208,-7.4092 17.5913,-11.1833 31.1292,-11.3484 l 2.7022,-1.8675 z m -11.2607,9.5633 c -10.4734,0.2085 -18.1192,2.975 -22.9152,8.3343 -4.8139,5.3333 -7.2208,12.4168 -7.2208,21.2419 0,9.1334 3.1451,13.7066 9.3996,13.7066 4.3933,0 8.4064,-3.0575 12.0794,-9.1725 3.6731,-6.0933 5.9592,-11.635 6.8451,-16.5817 0.8813,-4.9468 1.4763,-10.7968 1.8119,-17.5286 z m 98.3222,41.4153 -1.4316,8.8468 h -46.2822 c 0.7426,-4.2475 2.4964,-17.9585 5.2612,-41.1286 1.6062,-15.0226 2.5144,-27.4177 2.7246,-37.1678 h 11.4487 c -0.5951,3.4267 -2.152,15.8043 -4.711,37.1678 -1.4764,13.711 -2.8096,24.6902 -3.9504,32.9593 9.5696,0 21.8816,-0.2258 36.9407,-0.6775 z m 62.5626,0 -1.4361,8.8468 h -46.2777 c 0.7426,-4.2475 2.4919,-17.9585 5.2612,-41.1286 1.6062,-15.0226 2.5099,-27.4177 2.7201,-37.1678 h 11.4532 c -0.5951,3.4267 -2.1565,15.8043 -4.711,37.1678 -1.4809,13.711 -2.8141,24.6902 -3.9505,32.9593 9.5696,0 21.8817,-0.2258 36.9408,-0.6775 z m 73.0135,-50.8527 c 0,9.6242 -3.758,16.7034 -11.2518,21.2809 -7.525,4.5776 -16.9022,6.8533 -28.1585,6.8533 -2.2817,0 -3.9325,-0.039 -4.9615,-0.1216 -1.038,9.4201 -1.6509,19.9867 -1.8611,31.6869 h -11.9319 c 0.8188,-5.0466 2.5949,-18.7576 5.3195,-41.1286 1.4808,-13.7892 2.3488,-26.1669 2.5993,-37.1678 h 8.9119 c 0.9127,0 3.5076,-0.0391 7.7935,-0.165 4.286,-0.1216 7.9232,-0.1824 10.8984,-0.1824 6.8897,0 12.3792,1.8067 16.4772,5.4157 4.1205,3.5917 6.165,8.1085 6.165,13.5286 z m -10.2854,2.3366 c 0,-8.9684 -6.335,-13.4635 -19.0542,-13.4635 -3.333,0 -7.0732,0.2867 -11.1892,0.9034 l -3.1048,30.5403 c 1.369,0.0825 3.0422,0.1216 5.0241,0.1216 18.8842,0 28.3241,-6.0325 28.3241,-18.1018 z"
       style="fill:#1b1918;fill-rule:evenodd"
       id="path5" />
    <path
       d="m 1801.9154,583.1883 h 24.4231 v 0.581 c 0,9.7635 3.3216,17.8247 9.9143,24.2328 6.5884,6.363 14.728,9.5671 24.4779,9.5671 9.223,0 16.9664,-2.4757 23.0953,-7.3779 6.1332,-4.9554 9.2314,-11.1711 9.2314,-18.6513 0,-7.476 -2.4659,-13.4994 -7.3387,-18.0661 -4.8729,-4.5135 -13.6996,-8.7896 -26.4254,-12.7711 -20.4608,-6.1666 -33.8189,-12.4806 -40.0701,-18.9377 -6.2428,-6.4613 -9.3958,-15.1035 -9.3958,-25.8859 0,-12.2351 5.2185,-22.6287 15.706,-31.1769 10.4327,-8.5482 23.1543,-12.8202 38.0004,-12.8202 15.8241,0 28.3181,3.7892 37.6042,11.3635 9.2862,7.6233 14.2729,18.2093 14.9599,31.762 h -25.4474 c -0.5775,-7.382 -3.3258,-13.1149 -8.3167,-17.1946 -4.9866,-4.0797 -11.7479,-6.1175 -20.4018,-6.1175 -7.6801,0 -14.1547,2.1851 -19.2636,6.6045 -5.1595,4.4193 -7.735,9.9067 -7.735,16.4129 0,4.6649 1.0917,8.5973 3.212,11.7522 2.1203,3.2082 5.6147,6.0725 10.5423,8.5973 4.4724,2.3815 11.006,4.6608 19.6051,6.8459 8.5949,2.1851 14.3277,3.7892 17.2573,4.8081 11.575,4.1779 20.0603,9.7635 25.5064,16.6585 5.4461,6.9441 8.1354,15.7337 8.1354,26.4669 0,13.4504 -5.5599,24.6215 -16.6249,33.4602 -11.1114,8.7896 -25.1608,13.209 -42.182,13.209 -17.3668,0 -31.2981,-4.8081 -41.8447,-14.4243 -10.5465,-9.6162 -16.0474,-22.5796 -16.6249,-38.8984 z m -123.2917,49.243 V 475.9618 h 20.2964 v 156.4695 z m 20.2964,-174.8261 h -20.2964 v -32.3431 h 20.2964 z m -72.9027,43.0272 v -34.8228 -40.5475 h 20.2964 v 207.1692 h -20.2964 v -23.7008 c -7.0563,8.7445 -15.8788,15.5413 -26.4211,20.4476 -10.5381,4.9063 -21.6664,7.3329 -33.4859,7.3329 -22.7919,0 -41.9586,-7.963 -57.5508,-23.8931 -15.6385,-15.9302 -23.4325,-35.498 -23.4325,-58.6178 0,-22.9683 7.697,-42.2948 23.1374,-57.9834 15.3941,-15.6846 34.7084,-23.5535 57.8459,-23.5535 12.456,0 23.7782,2.3815 33.9748,7.1896 10.1967,4.8081 18.8759,11.8013 25.9322,20.9796 z m 0.5902,55.07 c 0,-17.8247 -5.9815,-33.0715 -17.8938,-45.6502 -11.9628,-12.6279 -25.9321,-18.9377 -42.0639,-18.9377 -16.6671,0 -30.9315,6.0193 -42.7974,18.017 -11.908,11.9936 -17.8431,26.6593 -17.8431,43.997 0,18.3076 5.9814,33.6525 17.8937,46.084 11.9123,12.4356 26.3748,18.6513 43.3369,18.6513 15.588,0 29.414,-6.2157 41.3769,-18.6513 11.9629,-12.4315 17.9907,-26.9007 17.9907,-43.5101 z m -179.1269,-12.7261 c -3.8274,-17.3828 -10.888,-30.4976 -21.131,-39.2872 -10.2473,-8.7896 -23.6307,-13.1598 -40.0996,-13.1598 -15.3477,0 -28.3391,4.7099 -38.9742,14.1828 -10.5929,9.4198 -17.1097,22.1909 -19.5124,38.2642 z m 22.3492,17.4851 h -142.6565 c 1.2266,17.0431 7.5031,30.8372 18.682,41.325 11.2209,10.5409 25.1945,15.7828 41.9627,15.7828 11.9081,0 22.598,-3.0568 32.0612,-9.1784 9.5096,-6.1175 16.8146,-14.6166 22.012,-25.4931 h 22.9394 c -7.2503,17.3378 -17.5017,30.69 -30.6364,39.9665 -13.1895,9.2765 -28.4361,13.9373 -45.7397,13.9373 -22.9899,0 -42.4559,-8.1103 -58.339,-24.331 -15.883,-16.2206 -23.8245,-35.7394 -23.8245,-58.4704 0,-23.844 7.794,-43.5101 23.3314,-59.0515 15.5458,-15.5863 35.4502,-23.357 59.6668,-23.357 23.7276,0 43.0882,8.1103 58.0902,24.2818 14.9557,16.1716 22.4504,37.1962 22.4504,63.1312 z m -208.2457,71.9699 h -20.5915 V 475.9618 h 19.1667 v 18.1153 c 4.9487,-6.9933 10.3442,-12.0469 16.2287,-15.3 5.8297,-3.2531 12.6963,-4.9513 20.4903,-5.1477 l 0.1476,21.8553 c -12.65,1.1171 -21.7676,4.9022 -27.2094,11.3143 -5.4925,6.4081 -8.2324,16.8017 -8.2324,31.226 z m 504.1517,-18.6554 h 17.8811 v 18.6554 c -5.9604,0 -11.9207,0 -17.8811,0 -14.7154,0.536 -20.4523,-6.5513 -20.2964,-18.6554 V 496.0658 h -29.9999 v -20.104 h 29.9999 v -50.6997 h 20.2964 v 50.6997 h 30.0041 v 20.104 h -30.0041 c 0,39.238 0,78.472 0,117.7101 z m -576.2198,-89.7373 c -6.2259,-11.4126 -13.8217,-19.8625 -22.7918,-25.3008 -8.9237,-5.4873 -19.6093,-8.2085 -31.9642,-8.2085 -16.2751,0 -30.1011,6.1216 -41.4738,18.3567 -11.3264,12.2391 -17.0085,27.3426 -17.0085,45.3596 0,18.0171 5.6821,33.0715 17.1097,45.1633 11.3685,12.0918 25.4896,18.1603 42.2578,18.1603 12.2537,0 23.0869,-2.9585 32.449,-8.9329 9.4168,-5.9743 16.5237,-14.3751 21.4218,-25.1575 h 22.3577 c -6.1248,16.949 -15.7355,30.1089 -28.8744,39.3854 -13.0926,9.2765 -28.533,13.9373 -46.3762,13.9373 -22.8424,0 -42.1608,-8.0612 -57.8963,-24.1345 -15.7356,-16.0734 -23.6307,-35.453 -23.6307,-58.1308 0,-23.1157 7.9921,-42.7367 23.9215,-58.8101 15.9336,-16.0733 35.3491,-24.1345 58.1915,-24.1345 17.1602,0 32.2592,4.5625 45.297,13.7409 13.0925,9.1783 22.8466,22.0967 29.3676,38.7061 z"
       style="fill:#ce0047;fill-rule:evenodd;stroke:#ce0047;stroke-width:0.216;stroke-linecap:butt;stroke-linejoin:miter;stroke-dasharray:none"
       id="path6" />
    <path
       d="m 463.7015,526.1746 -37.9836,-6.539 c 4.2869,-15.0708 11.6889,-26.2214 22.1554,-33.4561 10.4664,-7.2387 26.0418,-10.856 46.6669,-10.856 18.7368,0 32.7272,2.1319 41.9164,6.4449 9.1387,4.3129 15.6217,9.7634 19.348,16.4047 3.7305,6.6413 5.6189,18.7863 5.6189,36.5292 l -0.6154,47.5776 c 0,13.5322 0.666,23.5453 1.9938,29.986 1.3278,6.4449 3.8275,13.3317 7.5032,20.6687 h -41.6593 c -1.0749,-2.6762 -2.4533,-6.6413 -4.034,-11.8954 -0.666,-2.4266 -1.1761,-4.0143 -1.4795,-4.759 -7.1491,6.8418 -14.8082,11.9445 -22.9773,15.3654 -8.1692,3.4209 -16.8484,5.1559 -26.0882,5.1559 -16.2877,0 -29.1526,-4.313 -38.5484,-12.9389 -9.3916,-8.5727 -14.0916,-19.4778 -14.0916,-32.6581 0,-8.675 2.1456,-16.458 6.4325,-23.2957 4.2911,-6.7927 10.2641,-12.0427 18.0244,-15.6641 7.7097,-3.6174 18.8379,-6.7886 33.3889,-9.5139 19.6051,-3.5682 33.2372,-6.94 40.7952,-10.0131 v -4.1125 c 0,-7.9302 -1.9896,-13.5813 -5.973,-17.0022 -4.034,-3.3677 -11.592,-5.0536 -22.6696,-5.0536 -7.5032,0 -13.3244,1.4363 -17.5101,4.3621 -4.2406,2.8726 -7.6086,7.9794 -10.2136,15.2631 z m 56.3663,33.0101 c -5.3618,1.735 -13.8893,3.8178 -25.5781,6.2443 -11.6425,2.4307 -19.3016,4.8081 -22.8762,7.0874 -5.4629,3.8178 -8.2197,8.5768 -8.2197,14.3751 0,5.7493 2.1961,10.6556 6.5884,14.8171 4.3923,4.1657 9.9564,6.2444 16.7472,6.2444 7.5537,0 14.8039,-2.4266 21.6959,-7.2346 5.054,-3.7156 8.4262,-8.1758 10.007,-13.5323 1.0748,-3.4659 1.6355,-10.1072 1.6355,-19.8747 z m 187.8313,73.7499 v -23.0952 c -5.817,8.2249 -13.4256,14.768 -22.8719,19.6743 -9.4464,4.8572 -19.4028,7.2878 -29.8693,7.2878 -10.7193,0 -20.3174,-2.2792 -28.7943,-6.8418 -8.5274,-4.5585 -14.6522,-11.0034 -18.429,-19.2283 -3.8317,-8.278 -5.7201,-19.6783 -5.7201,-34.2499 v -97.8844 h 41.9669 v 71.0737 c 0,21.7571 0.7672,35.0397 2.3479,39.946 1.5344,4.9063 4.3417,8.8223 8.4769,11.6458 4.0846,2.8767 9.2946,4.3129 15.6217,4.3129 7.1996,0 13.6321,-1.9314 19.3522,-5.7492 5.7159,-3.8178 9.5981,-8.5727 11.6931,-14.2729 2.0907,-5.7001 3.1656,-19.5801 3.1656,-41.7341 v -65.2222 h 41.967 V 632.9346 Z M 862.548,478.5971 v 32.4126 h -28.7943 v 62.501 c 0,12.6852 0.2529,20.0712 0.8135,22.154 0.5649,2.0788 1.7873,3.8138 3.7811,5.201 1.939,1.338 4.2869,2.0337 7.0942,2.0337 3.9329,0 9.5476,-1.289 16.9538,-3.9161 l 3.5197,31.7211 c -9.7499,4.0634 -20.777,6.0971 -33.1318,6.0971 -7.558,0 -14.3487,-1.2399 -20.4229,-3.7196 -6.0784,-2.4757 -10.517,-5.7002 -13.3286,-9.6121 -2.8579,-3.9651 -4.797,-9.2683 -5.9224,-16.0119 -0.8642,-4.7549 -1.3278,-14.3711 -1.3278,-28.8936 v -67.5546 h -19.2974 v -32.4126 h 19.2974 v -30.6327 l 41.9712,-24.0854 v 54.7181 z m 19.6051,75.2844 c 0,-13.5814 3.4186,-26.7125 10.3147,-39.4018 6.8919,-12.7384 16.6418,-22.4036 29.2538,-29.094 12.612,-6.6904 26.6488,-10.0622 42.2241,-10.0622 24.0438,0 43.7037,7.5824 59.0683,22.7514 15.3687,15.214 23.0278,34.3482 23.0278,57.5416 0,23.3939 -7.7602,42.7735 -23.2302,58.1389 -15.5205,15.3613 -35.0244,23.0461 -58.5624,23.0461 -14.551,0 -28.436,-3.2245 -41.6592,-9.6162 -13.1727,-6.3917 -23.2303,-15.7623 -30.1222,-28.1528 -6.8961,-12.3415 -10.3147,-27.4082 -10.3147,-45.151 z m 43.1936,2.181 c 0,15.3163 3.7263,27.0603 11.1789,35.1911 7.5073,8.1758 16.6965,12.2391 27.673,12.2391 10.926,0 20.1152,-4.0633 27.5214,-12.2391 7.4019,-8.1308 11.1282,-19.9771 11.1282,-35.4898 0,-15.1158 -3.7263,-26.7616 -11.1282,-34.8924 -7.4062,-8.1758 -16.5954,-12.2391 -27.5214,-12.2391 -10.9765,0 -20.1657,4.0633 -27.673,12.2391 -7.4526,8.1308 -11.1789,19.8748 -11.1789,35.1911 z"
       style="fill:#1b1918;fill-rule:evenodd"
       id="path7" />
    <path
       d="m 2218.6219,422.5204 c 59.8607,0 114.0645,23.5576 153.2916,61.6376 39.227,38.0801 63.4942,90.6989 63.4942,148.8093 0,58.1103 -24.2672,110.7292 -63.4942,148.8092 -39.2271,38.08 -93.4309,61.6376 -153.2916,61.6376 -59.8607,0 -114.0646,-23.5576 -153.2916,-61.6376 -39.2271,-38.08 -63.4943,-90.6989 -63.4943,-148.8092 0,-58.1104 24.2672,-110.7292 63.4943,-148.8093 39.227,-38.08 93.4309,-61.6376 153.2916,-61.6376 z m 137.5181,76.9498 c -35.1888,-34.1599 -83.8159,-55.295 -137.5181,-55.295 -53.7023,0 -102.3293,21.1351 -137.5182,55.295 -35.1889,34.16 -56.9606,81.3651 -56.9606,133.4971 0,52.1319 21.7717,99.3371 56.9606,133.497 35.1889,34.1599 83.8159,55.295 137.5182,55.295 53.7022,0 102.3293,-21.1351 137.5181,-55.295 35.1889,-34.1599 56.9606,-81.3651 56.9606,-133.497 0,-52.132 -21.7717,-99.3371 -56.9606,-133.4971 z"
       style="fill:#1b1918;fill-rule:evenodd"
       id="path8" />
    <path
       d="m 2214.1579,604.5568 v -171.209 h 8.9279 v 171.209 z"
       style="fill:#1b1918;fill-rule:evenodd"
       id="path9" />
    <path
       d="m 2218.6218,601.2965 c 9.0084,0 17.1656,3.5452 23.0689,9.2759 5.9033,5.7307 9.5552,13.6493 9.5552,22.3943 0,8.745 -3.6519,16.6637 -9.5552,22.3943 -5.9033,5.7307 -14.0605,9.2759 -23.0689,9.2759 -9.0085,0 -17.1656,-3.5452 -23.0689,-9.2759 -5.9033,-5.7306 -9.5553,-13.6493 -9.5553,-22.3943 0,-8.745 3.652,-16.6636 9.5553,-22.3943 5.9033,-5.7307 14.0604,-9.2759 23.0689,-9.2759 z m 20.6951,11.5802 c -5.2956,-5.1407 -12.6135,-8.3213 -20.6951,-8.3213 -8.0817,0 -15.3996,3.1806 -20.6952,8.3213 -5.2955,5.1407 -8.572,12.2447 -8.572,20.09 0,7.8454 3.2765,14.9493 8.572,20.09 5.2956,5.1407 12.6135,8.3214 20.6952,8.3214 8.0816,0 15.3995,-3.1807 20.6951,-8.3214 5.2956,-5.1407 8.572,-12.2446 8.572,-20.09 0,-7.8453 -3.2764,-14.9493 -8.572,-20.09 z"
       style="fill:#1b1918;fill-rule:evenodd"
       id="path10" />
    <path
       d="m 2223.0005,604.5443 52.089,-163.5714 8.5296,2.5597 -52.089,163.5714 z"
       style="fill:#1b1918;fill-rule:evenodd"
       id="path11" />
    <path
       d="m 2231.4524,607.0677 99.5307,-141.3402 7.3703,4.8911 -99.5306,141.3401 z"
       style="fill:#1b1918;fill-rule:evenodd"
       id="path12" />
    <path
       d="m 2238.7596,611.9017 138.0922,-106.4987 5.5535,6.786 -138.0922,106.4987 z"
       style="fill:#1b1918;fill-rule:evenodd"
       id="path13" />
    <path
       d="m 2244.2701,618.6151 164.3334,-62.1554 3.2411,8.0755 -164.3333,62.1554 z"
       style="fill:#1b1918;fill-rule:evenodd"
       id="path14" />
    <path
       d="m 2247.4923,626.6089 175.9128,-12.2667 0.6397,8.6446 -175.9128,12.2667 z"
       style="fill:#1b1918;fill-rule:evenodd"
       id="path15" />
    <path
       d="m 2248.1387,635.17 171.7974,38.7164 -2.0189,8.4423 -171.7974,-38.7164 z"
       style="fill:#1b1918;fill-rule:evenodd"
       id="path16" />
    <path
       d="m 2246.1516,643.5345 152.3545,86.2452 -4.4974,7.4869 -152.3545,-86.2452 z"
       style="fill:#1b1918;fill-rule:evenodd"
       id="path17" />
    <path
       d="m 2241.7083,650.9561 119.3186,126.0794 -6.5746,5.8635 -119.3186,-126.0794 z"
       style="fill:#1b1918;fill-rule:evenodd"
       id="path18" />
    <path
       d="m 2235.2052,656.7727 75.6372,154.6649 -8.0652,3.7169 -75.6371,-154.6649 z"
       style="fill:#1b1918;fill-rule:evenodd"
       id="path19" />
    <path
       d="m 2227.2226,660.4654 25.2075,169.4512 -8.8362,1.2387 -25.2075,-169.4512 z"
       style="fill:#1b1918;fill-rule:evenodd"
       id="path20" />
    <path
       d="m 2218.4727,661.7046 -27.4712,169.1193 -8.819,-1.3499 27.4712,-169.1193 z"
       style="fill:#1b1918;fill-rule:evenodd"
       id="path21" />
    <path
       d="m 2209.736,660.3799 -77.6989,153.6987 -8.0148,-3.8182 77.6989,-153.6987 z"
       style="fill:#1b1918;fill-rule:evenodd"
       id="path22" />
    <path
       d="m 2201.7921,656.6094 -120.9944,124.5652 -6.4956,-5.9458 120.9944,-124.5652 z"
       style="fill:#1b1918;fill-rule:evenodd"
       id="path23" />
    <path
       d="m 2195.3498,650.7294 -153.4949,84.3182 -4.3969,-7.5429 153.4949,-84.3182 z"
       style="fill:#1b1918;fill-rule:evenodd"
       id="path24" />
    <path
       d="m 2190.9837,643.2647 -172.3007,36.5483 -1.9058,-8.467 172.3007,-36.5483 z"
       style="fill:#1b1918;fill-rule:evenodd"
       id="path25" />
    <path
       d="m 2189.0835,634.8812 -175.7339,-14.4823 0.7552,-8.6358 175.7339,14.4824 z"
       style="fill:#1b1918;fill-rule:evenodd"
       id="path26" />
    <path
       d="m 2189.8187,626.3269 -163.4884,-64.2209 3.3489,-8.034 163.4884,64.2209 z"
       style="fill:#1b1918;fill-rule:evenodd"
       id="path27" />
    <path
       d="m 2193.1237,618.365 -136.6566,-108.2298 5.6438,-6.7154 136.6565,108.2298 z"
       style="fill:#1b1918;fill-rule:evenodd"
       id="path28" />
    <path
       d="m 2198.7035,611.7058 -97.6322,-142.5824 7.4351,-4.7978 97.6323,142.5825 z"
       style="fill:#1b1918;fill-rule:evenodd"
       id="path29" />
    <path
       d="m 2206.0605,606.9435 -49.8974,-164.214 8.5632,-2.452 49.8973,164.214 z"
       style="fill:#1b1918;fill-rule:evenodd"
       id="path30" />
  </g>
</svg>
