<?xml version="1.0" encoding="UTF-8" standalone="no" ?>
<!DOCTYPE svg PUBLIC "-//W3C//DTD SVG 1.1//EN" "http://www.w3.org/Graphics/SVG/1.1/DTD/svg11.dtd">
<svg xmlns="http://www.w3.org/2000/svg" xmlns:xlink="http://www.w3.org/1999/xlink" version="1.1" width="1020" height="260" viewBox="0 470 1020 260" xml:space="preserve">
<desc>Created with Fabric.js 5.2.4</desc>
<defs>
</defs>
<rect x="0" y="0" width="100%" height="100%" fill="transparent"></rect>
<g transform="matrix(Infinity NaN NaN Infinity 0 0)" id="aaa9c1ff-e9ab-43ea-9ddc-065f29ff89a5"  >
</g>
<g transform="matrix(1 0 0 1 540 540)" id="300acba4-8ba7-4ae2-8e1b-0a431d11b36c"  >
<rect style="stroke: none; stroke-width: 1; stroke-dasharray: none; stroke-linecap: butt; stroke-dashoffset: 0; stroke-linejoin: miter; stroke-miterlimit: 4; fill: rgb(255,255,255); fill-rule: nonzero; opacity: 1; visibility: hidden;" vector-effect="non-scaling-stroke"  x="-540" y="-540" rx="0" ry="0" width="1080" height="1080" />
</g>
<g transform="matrix(0.66 0 0 0.66 509.7 678.26)"  >
<path style="stroke: none; stroke-width: 1; stroke-dasharray: none; stroke-linecap: butt; stroke-dashoffset: 0; stroke-linejoin: miter; stroke-miterlimit: 4; fill: rgb(27,25,24); fill-rule: evenodd; opacity: 1;" vector-effect="non-scaling-stroke"  transform=" translate(-1170.3, -710.28)" d="M 956.8278 673.7806 C 956.027 678.7273 954.4209000000001 691.105 951.9915 710.9484 C 950.6404 723.5692 949.7099 735.8427 949.1998 747.747 L 949.0119 752.077 L 937.1428 752.077 C 938.0957 746.1444 939.8852999999999 732.4377 942.5292999999999 710.9484 C 944.0459999999999 696.7683 944.8512 684.3733 944.9363 673.7806 z M 1021.162 710.9484 C 1021.162 714.1101 1020.6968 720.5725 1019.7707 730.301 C 1018.8401 740.0511 1018.3793000000001 747.317 1018.3793000000001 752.077 L 1007.9239 752.672 C 1007.9239 750.9087000000001 1008.5144 745.241 1009.7134 735.6603 C 1010.9213 726.0752 1011.5119 718.831 1011.5119 713.906 C 1011.5119 709.2025 1010.644 705.9408 1008.8947 704.1341 C 1007.1409 702.3101 1004.3761 701.385 1000.6135999999999 701.385 C 996.1351999999999 701.385 991.8045 704.2384 987.6661999999999 709.9625 C 983.5054999999999 715.6693 981.0985 721.971 980.3781999999999 728.8634 C 979.4699999999999 737.8534999999999 978.7720999999999 745.5927999999999 978.2888999999999 752.077 L 968.1913999999999 752.672 C 971.0859999999999 731.9253 972.5220999999999 717.8842000000001 972.5220999999999 710.5792 C 972.5220999999999 706.3708 972.2044999999999 701.2417 971.5512999999999 695.1875 L 982.0022999999999 693.6891 C 982.2348999999999 697.22 982.3645999999999 701.8975 982.3645999999999 707.7041 L 982.8701999999998 707.7041 C 988.2343999999998 697.9583 995.6072999999999 693.0941 1005.0023999999999 693.0941 C 1015.7754999999999 693.0941 1021.1619999999998 699.0441000000001 1021.1619999999998 710.9484 z M 1094.01 667.1097 C 1094.01 668.1564 1093.2942 672.4907 1091.9029 680.1041 C 1090.507 687.7174 1089.2588 696.7249 1088.1851000000001 707.1308 C 1087.1069000000002 717.5368 1086.5789000000002 727.326 1086.5789000000002 736.4985 C 1086.5789000000002 741.9186000000001 1086.7445000000002 747.1085 1087.0845000000002 752.077 L 1077.4344 752.8587 C 1076.7543 749.532 1076.4367000000002 744.8545 1076.4367000000002 738.8394 L 1075.9311000000002 738.8394 C 1070.4820000000002 748.5894999999999 1063.0285000000003 753.4536999999999 1053.5439000000003 753.4536999999999 C 1047.6697000000004 753.4536999999999 1042.9408000000003 751.3603999999999 1039.3080000000004 747.1736999999999 C 1035.6753000000003 742.987 1033.8589000000004 737.3409999999999 1033.8589000000004 730.2402 C 1033.8589000000004 719.3435 1036.7132000000004 710.3968 1042.3905000000004 703.3741 C 1048.0947000000003 696.3557 1055.7629000000004 692.8466 1065.4175000000005 692.8466 C 1071.6004000000005 692.8466 1076.4188000000004 694.1799 1079.8368000000005 696.8290999999999 L 1080.3245000000004 696.8290999999999 C 1081.1924000000004 688.5165 1081.9306000000004 678.7489999999999 1082.5659000000005 667.4788 z M 1079.6489 704.0341999999999 C 1076.0564 701.7150999999999 1072.1731 700.5423999999999 1068.0123999999998 700.5423999999999 C 1060.3038999999999 700.5423999999999 1054.4520999999997 702.8833 1050.4389999999999 707.5608 C 1046.4482999999998 712.2209 1044.4396 718.5834 1044.4396 726.6485 C 1044.4396 738.9827 1048.9179 745.1629 1057.8745999999999 745.1629 C 1062.3708 745.1629 1066.7417999999998 742.4094 1071.0098999999998 736.9328 C 1075.2779999999998 731.4302 1077.7474999999997 725.0285 1078.4051999999997 717.6801 z M 1118.9562999999998 693.8107 C 1119.0013 696.7075 1118.6386999999997 700.6858 1117.8781 705.7584 C 1117.0952 710.8268 1116.3211999999999 717.1068 1115.4936 724.5986 C 1114.8583 730.2836 1114.1827 739.4561 1113.4445 752.077 L 1102.6759 752.672 C 1103.6244 746.3529 1104.9129 736.9936 1106.519 724.5986 C 1107.3869 716.5943 1107.803 709.1851 1107.803 702.4099 C 1107.803 699.5566 1107.74 697.2374 1107.5703 695.435 z M 1123.4122999999997 676.0781 C 1123.4122999999997 678.3973 1122.6293999999998 680.3906999999999 1121.0500999999997 682.0323999999999 C 1119.4842999999996 683.6741 1117.4978999999996 684.4948999999999 1115.1132999999998 684.4948999999999 C 1111.3551999999997 684.4948999999999 1109.4940999999997 682.5448999999999 1109.4940999999997 678.6664999999999 C 1109.4940999999997 676.3472999999999 1110.2769999999996 674.3756 1111.8428999999996 672.7774 C 1113.3997999999997 671.1747999999999 1115.3906999999997 670.3756999999999 1117.7751999999996 670.3756999999999 C 1121.5377999999996 670.3756999999999 1123.4122999999995 672.2648999999999 1123.4122999999995 676.0781 z M 1180.8209999999997 692.2515999999999 C 1177.0628999999997 712.6117999999999 1175.2017999999996 727.4301999999999 1175.2017999999996 736.6851999999999 C 1175.2017999999996 740.8935999999999 1175.5596999999996 745.8186999999999 1176.3023999999996 751.4819999999999 L 1165.8469999999995 752.9802999999998 C 1165.5918999999994 749.4103999999999 1165.4845999999995 744.9369999999998 1165.4845999999995 739.5776999999998 L 1164.9163999999996 739.5776999999998 C 1159.6774999999996 748.8326999999998 1152.7742999999996 753.4536999999998 1144.1978999999997 753.4536999999998 C 1139.1915999999997 753.4536999999998 1135.3932999999997 751.5210999999998 1132.7715999999996 747.6644999999997 C 1130.1543999999997 743.7860999999997 1128.8435999999995 738.7568999999997 1128.8435999999995 732.5375999999998 C 1128.8435999999995 722.5225999999998 1132.4539999999995 713.8016999999998 1139.6792999999996 706.3707999999998 C 1146.9000999999996 698.9615999999997 1157.2705999999996 695.1874999999998 1170.8084999999996 695.0223999999998 L 1173.5106999999996 693.1548999999999 z M 1169.5602999999996 701.8149 C 1159.0868999999996 702.0233999999999 1151.4410999999996 704.7899 1146.6450999999997 710.1492 C 1141.8311999999996 715.4825 1139.4242999999997 722.5659999999999 1139.4242999999997 731.3910999999999 C 1139.4242999999997 740.5245 1142.5693999999996 745.0976999999999 1148.8238999999996 745.0976999999999 C 1153.2171999999996 745.0976999999999 1157.2302999999997 742.0401999999999 1160.9032999999997 735.9251999999999 C 1164.5763999999997 729.8318999999999 1166.8624999999997 724.2901999999999 1167.7483999999997 719.3435 C 1168.6296999999997 714.3966999999999 1169.2246999999998 708.5467 1169.5602999999996 701.8149 z M 1267.8824999999997 743.2302 L 1266.4508999999998 752.077 L 1220.1686999999997 752.077 C 1220.9112999999998 747.8295 1222.6650999999997 734.1185 1225.4298999999996 710.9484 C 1227.0360999999996 695.9258 1227.9442999999997 683.5307 1228.1544999999996 673.7806 L 1239.6031999999996 673.7806 C 1239.0080999999996 677.2073 1237.4511999999995 689.5849000000001 1234.8921999999995 710.9484 C 1233.4157999999995 724.6594 1232.0825999999995 735.6386 1230.9417999999996 743.9077 C 1240.5113999999996 743.9077 1252.8233999999995 743.6818999999999 1267.8824999999997 743.2302 z M 1330.4450999999997 743.2302 L 1329.0089999999998 752.077 L 1282.7312999999997 752.077 C 1283.4738999999997 747.8295 1285.2231999999997 734.1185 1287.9924999999996 710.9484 C 1289.5986999999996 695.9258 1290.5023999999996 683.5307 1290.7125999999996 673.7806 L 1302.1657999999995 673.7806 C 1301.5706999999995 677.2073 1300.0092999999995 689.5849000000001 1297.4547999999995 710.9484 C 1295.9738999999995 724.6594 1294.6406999999995 735.6386 1293.5042999999996 743.9077 C 1303.0738999999996 743.9077 1315.3859999999995 743.6818999999999 1330.4450999999997 743.2302 z M 1403.4585999999997 692.3774999999999 C 1403.4585999999997 702.0016999999999 1399.7005999999997 709.0808999999999 1392.2067999999997 713.6583999999999 C 1384.6817999999996 718.2359999999999 1375.3045999999997 720.5116999999999 1364.0482999999997 720.5116999999999 C 1361.7665999999997 720.5116999999999 1360.1157999999998 720.4726999999999 1359.0867999999998 720.3901 C 1358.0487999999998 729.8102 1357.4358999999997 740.3768 1357.2256999999997 752.077 L 1345.2937999999997 752.077 C 1346.1125999999997 747.0304 1347.8886999999997 733.3194 1350.6132999999998 710.9484 C 1352.0940999999998 697.1591999999999 1352.9620999999997 684.7815 1353.2125999999998 673.7806 L 1362.1245 673.7806 C 1363.0372 673.7806 1365.6320999999998 673.7415000000001 1369.918 673.6156000000001 C 1374.204 673.4940000000001 1377.8411999999998 673.4332 1380.8164 673.4332 C 1387.7060999999999 673.4332 1393.1956 675.2399 1397.2936 678.8489000000001 C 1401.4141 682.4406 1403.4586 686.9574000000001 1403.4586 692.3775 z M 1393.1731999999997 694.7140999999999 C 1393.1731999999997 685.7456999999999 1386.8381999999997 681.2506 1374.1189999999997 681.2506 C 1370.7859999999996 681.2506 1367.0457999999996 681.5373 1362.9297999999997 682.154 L 1359.8249999999996 712.6943 C 1361.1939999999995 712.7768 1362.8671999999997 712.8158999999999 1364.8490999999997 712.8158999999999 C 1383.7332999999996 712.8158999999999 1393.1731999999997 706.7833999999999 1393.1731999999997 694.7140999999999 z" stroke-linecap="round" />
</g>
<g transform="matrix(0.66 0 0 0.66 719.7 559.17)"  >
<path style="stroke: rgb(206,0,71); stroke-width: 0.22; stroke-dasharray: none; stroke-linecap: butt; stroke-dashoffset: 0; stroke-linejoin: miter; stroke-miterlimit: 4; fill: rgb(206,0,71); fill-rule: evenodd; opacity: 1;" vector-effect="non-scaling-stroke"  transform=" translate(-1487.14, -531.03)" d="M 1801.9154 583.1883 L 1826.3385 583.1883 L 1826.3385 583.7693 C 1826.3385 593.5328000000001 1829.6601 601.594 1836.2528 608.0021 C 1842.8412 614.3651000000001 1850.9808 617.5692 1860.7307 617.5692 C 1869.9537 617.5692 1877.6971 615.0935000000001 1883.826 610.1913000000001 C 1889.9592 605.2359 1893.0574 599.0202 1893.0574 591.5400000000001 C 1893.0574 584.0640000000001 1890.5915 578.0406 1885.7187 573.4739000000001 C 1880.8457999999998 568.9604 1872.0191 564.6843000000001 1859.2932999999998 560.7028 C 1838.8324999999998 554.5362 1825.4743999999998 548.2222 1819.2232 541.7651000000001 C 1812.9804 535.3038 1809.8274 526.6616 1809.8274 515.8792000000001 C 1809.8274 503.6441000000001 1815.0458999999998 493.2505000000001 1825.5333999999998 484.7023000000001 C 1835.9660999999999 476.1541000000001 1848.6876999999997 471.8821000000001 1863.5337999999997 471.8821000000001 C 1879.3578999999997 471.8821000000001 1891.8518999999997 475.6713000000001 1901.1379999999997 483.2456000000001 C 1910.4241999999997 490.86890000000005 1915.4108999999996 501.45490000000007 1916.0978999999998 515.0076000000001 L 1890.6504999999997 515.0076000000001 C 1890.0729999999996 507.62560000000013 1887.3246999999997 501.89270000000016 1882.3337999999997 497.81300000000016 C 1877.3471999999997 493.73330000000016 1870.5858999999996 491.69550000000015 1861.9319999999996 491.69550000000015 C 1854.2518999999995 491.69550000000015 1847.7772999999995 493.88060000000013 1842.6683999999996 498.3000000000001 C 1837.5088999999996 502.71930000000015 1834.9333999999997 508.2067000000001 1834.9333999999997 514.7129000000001 C 1834.9333999999997 519.3778000000001 1836.0250999999996 523.3102000000001 1838.1453999999997 526.4651000000001 C 1840.2656999999997 529.6733000000002 1843.7600999999997 532.5376000000001 1848.6876999999997 535.0624000000001 C 1853.1600999999998 537.4439000000001 1859.6936999999998 539.7232000000001 1868.2927999999997 541.9083000000002 C 1876.8876999999998 544.0934000000002 1882.6204999999998 545.6975000000002 1885.5500999999997 546.7164000000001 C 1897.1250999999997 550.8943000000002 1905.6103999999998 556.4799000000002 1911.0564999999997 563.3749000000001 C 1916.5025999999996 570.3190000000002 1919.1918999999996 579.1086000000001 1919.1918999999996 589.8418000000001 C 1919.1918999999996 603.2922000000001 1913.6319999999996 614.4633000000001 1902.5669999999996 623.3020000000001 C 1891.4555999999995 632.0916000000001 1877.4061999999994 636.5110000000001 1860.3849999999995 636.5110000000001 C 1843.0181999999995 636.5110000000001 1829.0868999999996 631.7029000000001 1818.5402999999994 622.0867000000001 C 1807.9937999999995 612.4705 1802.4928999999995 599.5071 1801.9153999999994 583.1883 z M 1678.6237 632.4313000000001 L 1678.6237 475.9618 L 1698.9201 475.9618 L 1698.9201 632.4313 z M 1698.9201 457.6052000000001 L 1678.6237 457.6052000000001 L 1678.6237 425.2621000000001 L 1698.9201 425.2621000000001 z M 1626.0174 500.6324000000001 L 1626.0174 465.80960000000005 L 1626.0174 425.26210000000003 L 1646.3138 425.26210000000003 L 1646.3138 632.4313 L 1626.0174 632.4313 L 1626.0174 608.7305 C 1618.9611 617.475 1610.1386 624.2718 1599.5963 629.1781 C 1589.0582 634.0844 1577.9298999999999 636.511 1566.1104 636.511 C 1543.3185 636.511 1524.1518 628.548 1508.5596 612.6179 C 1492.9211 596.6877 1485.1271000000002 577.1198999999999 1485.1271000000002 554.0001 C 1485.1271000000002 531.0318 1492.8241 511.70529999999997 1508.2645000000002 496.01669999999996 C 1523.6586000000002 480.33209999999997 1542.9729000000002 472.4632 1566.1104000000003 472.4632 C 1578.5664000000002 472.4632 1589.8886000000002 474.8447 1600.0852000000002 479.65279999999996 C 1610.2819000000002 484.4609 1618.9611000000002 491.4541 1626.0174000000002 500.63239999999996 z M 1626.6076 555.7024000000001 C 1626.6076 537.8777000000001 1620.6261 522.6309000000001 1608.7138 510.05220000000014 C 1596.751 497.42430000000013 1582.7817 491.11450000000013 1566.6499 491.11450000000013 C 1549.9828 491.11450000000013 1535.7184 497.1338000000001 1523.8525 509.13150000000013 C 1511.9445 521.1251000000001 1506.0094 535.7908000000001 1506.0094 553.1285000000001 C 1506.0094 571.4361000000001 1511.9907999999998 586.7810000000002 1523.9031 599.2125000000001 C 1535.8154 611.6481000000001 1550.2779 617.8638000000001 1567.24 617.8638000000001 C 1582.828 617.8638000000001 1596.654 611.6481000000001 1608.6169 599.2125000000001 C 1620.5798 586.7810000000001 1626.6076 572.3118000000001 1626.6076 555.7024000000001 z M 1447.4807 542.9763000000002 C 1443.6533000000002 525.5935000000002 1436.5927000000001 512.4787000000001 1426.3497 503.68910000000017 C 1416.1024 494.89950000000016 1402.719 490.52930000000015 1386.2501 490.52930000000015 C 1370.9024 490.52930000000015 1357.911 495.23920000000015 1347.2758999999999 504.71210000000013 C 1336.6829999999998 514.1319000000001 1330.1662 526.9030000000001 1327.7634999999998 542.9763000000002 z M 1469.8299000000002 560.4614000000001 L 1327.1734000000001 560.4614000000001 C 1328.4 577.5045000000001 1334.6765 591.2986000000002 1345.8554000000001 601.7864000000002 C 1357.0763000000002 612.3273000000002 1371.0499000000002 617.5692000000001 1387.8181000000002 617.5692000000001 C 1399.7262000000003 617.5692000000001 1410.4161000000001 614.5124000000002 1419.8793000000003 608.3908000000001 C 1429.3889000000004 602.2733000000002 1436.6939000000002 593.7742000000002 1441.8913000000002 582.8977000000001 L 1464.8307000000002 582.8977000000001 C 1457.5804000000003 600.2355000000001 1447.3290000000002 613.5877000000002 1434.1943 622.8642000000001 C 1421.0048000000002 632.1407000000002 1405.7582000000002 636.8015000000001 1388.4546 636.8015000000001 C 1365.4647 636.8015000000001 1345.9987 628.6912000000001 1330.1156 612.4705000000001 C 1314.2326 596.2499000000001 1306.2911000000001 576.7311000000001 1306.2911000000001 554.0001000000001 C 1306.2911000000001 530.1561 1314.0851000000002 510.49000000000007 1329.6225000000002 494.9486000000001 C 1345.1683000000003 479.3623000000001 1365.0727000000002 471.5916000000001 1389.2893000000001 471.5916000000001 C 1413.0169 471.5916000000001 1432.3775 479.7019000000001 1447.3795000000002 495.87340000000006 C 1462.3352000000002 512.0450000000001 1469.8299000000002 533.0696 1469.8299000000002 559.0046000000001 z M 1261.5842000000002 632.4313000000002 L 1240.9927000000002 632.4313000000002 L 1240.9927000000002 475.9618 L 1260.1594000000002 475.9618 L 1260.1594000000002 494.0771 C 1265.1081000000001 487.0838 1270.5036000000002 482.0302 1276.3881000000001 478.77709999999996 C 1282.2178000000001 475.52399999999994 1289.0844000000002 473.82579999999996 1296.8784 473.6294 L 1297.026 495.4847 C 1284.376 496.60179999999997 1275.2584000000002 500.38689999999997 1269.8166 506.799 C 1264.3241 513.2071 1261.5842 523.6007 1261.5842 538.025 z M 1765.7359000000001 613.7759000000002 L 1783.6170000000002 613.7759000000002 L 1783.6170000000002 632.4313000000002 C 1777.6566000000003 632.4313000000002 1771.6963000000003 632.4313000000002 1765.7359000000001 632.4313000000002 C 1751.0205 632.9673000000001 1745.2836000000002 625.8800000000002 1745.4395000000002 613.7759000000002 L 1745.4395000000002 496.0658 L 1715.4396000000002 496.0658 L 1715.4396000000002 475.96180000000004 L 1745.4395000000002 475.96180000000004 L 1745.4395000000002 425.26210000000003 L 1765.7359000000001 425.26210000000003 L 1765.7359000000001 475.96180000000004 L 1795.7400000000002 475.96180000000004 L 1795.7400000000002 496.0658 L 1765.7359000000001 496.0658 C 1765.7359000000001 535.3038 1765.7359000000001 574.5378000000001 1765.7359000000001 613.7759 z M 1189.5161000000003 524.0386000000002 C 1183.2902000000004 512.6260000000002 1175.6944000000003 504.1761000000002 1166.7243000000003 498.7378000000002 C 1157.8006000000003 493.2505000000002 1147.1150000000002 490.5293000000002 1134.7601000000004 490.5293000000002 C 1118.4850000000004 490.5293000000002 1104.6590000000003 496.6509000000002 1093.2863000000004 508.8860000000002 C 1081.9599000000005 521.1251000000002 1076.2778000000005 536.2286000000001 1076.2778000000005 554.2456000000002 C 1076.2778000000005 572.2627000000002 1081.9599000000005 587.3171000000002 1093.3875000000005 599.4089000000002 C 1104.7560000000005 611.5007000000003 1118.8771000000006 617.5692000000003 1135.6453000000006 617.5692000000003 C 1147.8990000000006 617.5692000000003 1158.7322000000006 614.6107000000003 1168.0943000000007 608.6363000000002 C 1177.5111000000006 602.6620000000003 1184.6180000000006 594.2612000000003 1189.5161000000007 583.4788000000002 L 1211.8738000000008 583.4788000000002 C 1205.7490000000007 600.4278000000002 1196.1383000000008 613.5877000000002 1182.9994000000008 622.8642000000002 C 1169.9068000000009 632.1407000000003 1154.466400000001 636.8015000000003 1136.623200000001 636.8015000000003 C 1113.780800000001 636.8015000000003 1094.4624000000008 628.7403000000003 1078.726900000001 612.6670000000003 C 1062.991300000001 596.5936000000003 1055.096200000001 577.2140000000003 1055.096200000001 554.5362000000002 C 1055.096200000001 531.4205000000003 1063.088300000001 511.79950000000025 1079.017700000001 495.72610000000026 C 1094.951300000001 479.65280000000024 1114.366800000001 471.59160000000026 1137.209200000001 471.59160000000026 C 1154.369400000001 471.59160000000026 1169.4684000000009 476.15410000000026 1182.506200000001 485.33250000000027 C 1195.598700000001 494.51080000000024 1205.352800000001 507.42920000000026 1211.873800000001 524.0386000000003 z" stroke-linecap="round" />
</g>
<g transform="matrix(0.66 0 0 0.66 219.78 558.7)"  >
<path style="stroke: none; stroke-width: 1; stroke-dasharray: none; stroke-linecap: butt; stroke-dashoffset: 0; stroke-linejoin: miter; stroke-miterlimit: 4; fill: rgb(27,25,24); fill-rule: evenodd; opacity: 1;" vector-effect="non-scaling-stroke"  transform=" translate(-733.73, -530.34)" d="M 463.7015 526.1746 L 425.7179 519.6356000000001 C 430.0048 504.56480000000005 437.4068 493.41420000000005 447.8733 486.1795000000001 C 458.3397 478.9408000000001 473.9151 475.3235000000001 494.54019999999997 475.3235000000001 C 513.2769999999999 475.3235000000001 527.2674 477.45540000000005 536.4566 481.7684000000001 C 545.5953 486.0813000000001 552.0783 491.5318000000001 555.8045999999999 498.1731000000001 C 559.5350999999999 504.8144000000001 561.4235 516.9594000000001 561.4235 534.7023000000002 L 560.8081 582.2799000000001 C 560.8081 595.8121000000001 561.4741 605.8252000000001 562.8018999999999 612.2659000000001 C 564.1297 618.7108000000001 566.6293999999999 625.5976 570.3050999999999 632.9346 L 528.6457999999999 632.9346 C 527.5708999999999 630.2584 526.1924999999999 626.2933 524.6117999999999 621.0392 C 523.9457999999998 618.6126 523.4356999999999 617.0249 523.1322999999999 616.2802 C 515.9831999999999 623.1220000000001 508.3240999999999 628.2247 500.15499999999986 631.6456000000001 C 491.98579999999987 635.0665 483.30659999999983 636.8015 474.06679999999983 636.8015 C 457.77909999999986 636.8015 444.9141999999998 632.4885 435.5183999999998 623.8626 C 426.12679999999983 615.2899 421.42679999999984 604.3848 421.42679999999984 591.2045 C 421.42679999999984 582.5295000000001 423.57239999999985 574.7465000000001 427.85929999999985 567.9088 C 432.1503999999999 561.1161000000001 438.12339999999983 555.8661000000001 445.88369999999986 552.2447000000001 C 453.59339999999986 548.6273000000001 464.72159999999985 545.4561000000001 479.27259999999984 542.7308 C 498.87769999999983 539.1626 512.5097999999998 535.7908 520.0677999999998 532.7177 L 520.0677999999998 528.6052000000001 C 520.0677999999998 520.6750000000001 518.0781999999998 515.0239 514.0947999999999 511.60300000000007 C 510.06079999999986 508.23530000000005 502.50279999999987 506.54940000000005 491.42519999999985 506.54940000000005 C 483.92199999999985 506.54940000000005 478.1007999999998 507.98570000000007 473.9150999999998 510.91150000000005 C 469.67449999999985 513.7841000000001 466.3064999999998 518.8909000000001 463.70149999999984 526.1746 z M 520.0678 559.1847 C 514.706 560.9197 506.17850000000004 563.0025 494.4897 565.429 C 482.84720000000004 567.8597 475.1881 570.2370999999999 471.61350000000004 572.5164 C 466.15060000000005 576.3342 463.39380000000006 581.0932 463.39380000000006 586.8915 C 463.39380000000006 592.6407999999999 465.58990000000006 597.5471 469.98220000000003 601.7085999999999 C 474.3745 605.8743 479.9386 607.953 486.72940000000006 607.953 C 494.28310000000005 607.953 501.53330000000005 605.5264 508.42530000000005 600.7184 C 513.4793000000001 597.0028 516.8515000000001 592.5426 518.4323 587.1861 C 519.5071 583.7202 520.0678 577.0789 520.0678 567.3114 z M 707.8991000000001 632.9346 L 707.8991000000001 609.8394000000001 C 702.0821000000001 618.0643000000001 694.4735000000001 624.6074000000001 685.0272000000001 629.5137000000001 C 675.5808000000001 634.3709000000001 665.6244000000002 636.8015 655.1579000000002 636.8015 C 644.4386000000002 636.8015 634.8405000000001 634.5223000000001 626.3636000000001 629.9597 C 617.8362000000002 625.4012 611.7114000000001 618.9563 607.9346000000002 610.7314 C 604.1029000000002 602.4534 602.2145000000002 591.0531 602.2145000000002 576.4815 L 602.2145000000002 478.59709999999995 L 644.1814000000002 478.59709999999995 L 644.1814000000002 549.6708 C 644.1814000000002 571.4279 644.9486000000002 584.7105 646.5293000000001 589.6168 C 648.0637000000002 594.5231 650.8710000000001 598.4391 655.0062000000001 601.2626 C 659.0908000000002 604.1393 664.3008000000001 605.5755 670.6279000000002 605.5755 C 677.8275000000002 605.5755 684.2600000000002 603.6441 689.9801000000002 599.8263000000001 C 695.6960000000003 596.0085 699.5782000000003 591.2536 701.6732000000002 585.5534 C 703.7639000000001 579.8533 704.8388000000002 565.9733 704.8388000000002 543.8193 L 704.8388000000002 478.5971 L 746.8058000000002 478.5971 L 746.8058000000002 632.9346 Z M 862.548 478.5971 L 862.548 511.0097 L 833.7537 511.0097 L 833.7537 573.5107 C 833.7537 586.1959 834.0065999999999 593.5819 834.5672 595.6647 C 835.1320999999999 597.7435 836.3544999999999 599.4785 838.3483 600.8657000000001 C 840.2873 602.2037 842.6351999999999 602.8994 845.4425 602.8994 C 849.3754 602.8994 854.9901 601.6104 862.3963 598.9833 L 865.9159999999999 630.7044 C 856.1660999999999 634.7678 845.1389999999999 636.8014999999999 832.7841999999999 636.8014999999999 C 825.2262 636.8014999999999 818.4354999999999 635.5615999999999 812.3612999999999 633.0818999999999 C 806.2828999999999 630.6062 801.8442999999999 627.3816999999999 799.0326999999999 623.4697999999999 C 796.1747999999999 619.5046999999998 794.2356999999998 614.2014999999999 793.1102999999998 607.4578999999999 C 792.2460999999998 602.7029999999999 791.7824999999998 593.0867999999999 791.7824999999998 578.5642999999999 L 791.7824999999998 511.0096999999999 L 772.4850999999998 511.0096999999999 L 772.4850999999998 478.5970999999999 L 791.7824999999998 478.5970999999999 L 791.7824999999998 447.9643999999999 L 833.7536999999998 423.8789999999999 L 833.7536999999998 478.5970999999999 z M 882.1531 553.8815 C 882.1531 540.3000999999999 885.5717 527.169 892.4678 514.4797 C 899.3597 501.74129999999997 909.1096 492.0761 921.7216 485.3857 C 934.3335999999999 478.6953 948.3704 475.32349999999997 963.9457 475.32349999999997 C 987.9895 475.32349999999997 1007.6494 482.9059 1023.014 498.07489999999996 C 1038.3827 513.2889 1046.0418 532.4231 1046.0418 555.6165 C 1046.0418 579.0104 1038.2816 598.39 1022.8116 613.7554 C 1007.2911 629.1167 987.7872 636.8015 964.2492 636.8015 C 949.6981999999999 636.8015 935.8131999999999 633.577 922.5899999999999 627.1853 C 909.4173 620.7936 899.3597 611.423 892.4677999999999 599.0325 C 885.5716999999999 586.691 882.1530999999999 571.6243000000001 882.1530999999999 553.8815000000001 z M 925.3467 556.0625 C 925.3467 571.3788 929.0730000000001 583.1228 936.5256 591.2536 C 944.0329 599.4294 953.2221000000001 603.4927 964.1986 603.4927 C 975.1246000000001 603.4927 984.3138 599.4294 991.72 591.2536 C 999.1219 583.1228 1002.8482 571.2765 1002.8482 555.7638 C 1002.8482 540.6479999999999 999.1219 529.0021999999999 991.72 520.8714 C 984.3138 512.6956 975.1246 508.6323 964.1986 508.6323 C 953.2221000000001 508.6323 944.0329 512.6956 936.5256 520.8714 C 929.0730000000001 529.0022 925.3467 540.7462 925.3467 556.0625 z" stroke-linecap="round" />
</g>
</svg>
